<?xml version="1.0" standalone="no"?><!DOCTYPE svg PUBLIC "-//W3C//DTD SVG 1.1//EN" "http://www.w3.org/Graphics/SVG/1.1/DTD/svg11.dtd"><svg class="icon" width="200px" height="200.00px" viewBox="0 0 1024 1024" version="1.1" xmlns="http://www.w3.org/2000/svg"><path d="M154.976 64H960v64s-280 5.952-94.56 289.248C960 518.864 960 693.84 960 693.84S952.288 959.344 864 960c-53.152 0.4-784 0-784 0v-64s249.984-62.208 74.976-307.2C-32 327.104 154.976 64 154.976 64z" fill="#F4E827" /><path d="M272.08 872h136.336v12.064h-136.336V872z m8.752-104h118.272v12.352h-118.272V768z m6.4 49.248h105.6v12.224h-105.6v-12.16z m134.688 48.416q22.576-5.456 45.872-11.936 0.144 5.056 0.416 9.92-23.856 6.608-42.336 12.192z m18.912-33.472q14.672-1.6 29.92-3.568l-1.136 9.312q-23.008 2.896-40.64 5.904l-2.544-10.208a140.512 140.512 0 0 0 21.104-27.408q-10.896 0.784-22.4 2.016l-2.736-9.024a207.536 207.536 0 0 0 27.2-45.952l10.72 4.8q-14.544 24.992-25.408 40.496c5.264-0.192 11.2-0.448 17.776-0.736q5.088-8.448 10.864-18.672l10.256 4.848q-21.312 32.912-33.024 48.256z m52.8-14.4a117.232 117.232 0 0 1-28.8 76.4 75.008 75.008 0 0 0-9.04-8 92.544 92.544 0 0 0 23.424-43.2 320.544 320.544 0 0 0 4.8-70.528h-12.752v-10.128h70.4v10.752L528 801.968h23.424v10.624a158.192 158.192 0 0 1-22.24 45.44 130.448 130.448 0 0 0 33.392 24.48 127.04 127.04 0 0 0-9.456 10.624 165.728 165.728 0 0 1-31.392-25.6 128.64 128.64 0 0 1-34.096 27.728 76.896 76.896 0 0 0-7.904-9.184 136.816 136.816 0 0 0 34.432-27.648 145.728 145.728 0 0 1-20.656-40.544z m22.784-16.208l13.552-29.168h-35.424v19.408a166.176 166.176 0 0 0 27.04 57.44 125.008 125.008 0 0 0 18.208-37.216h-23.504v-10.368z m64.4-28.8h34.16v99.2h-10.016v-10.848h-14.4v13.056h-9.888V772.8z m24.272 9.92h-14.4V851.2h14.4v-68.48z m21.168-8.896h24.848q3.952-10.192 7.056-20.112l11.44 2.704q-3.664 9.04-7.344 17.392H704v103.392a13.856 13.856 0 0 1-14.688 16.368q-7.344 0.128-17.6 0-0.704-5.168-1.968-11.2 9.6 0.864 16.8 0.864a7.44 7.44 0 0 0 7.616-9.056v-90.576H636v112h-9.872v-121.76z m20.32 28.8h37.264v56.288H656v6.32h-9.6v-62.672z m27.664 8.896H656v38.496h18.064v-38.56z m116.032-53.584l10.304-5.584a180.912 180.912 0 0 1 11.568 17.072l-6.832 4.016H862.4v10.912h-109.936v35.2a117.984 117.984 0 0 1-20.608 75.952 101.376 101.376 0 0 0-8.192-9.888q16.944-19.2 16.944-65.776v-46.4h59.696a179.424 179.424 0 0 0-10.16-15.552z m-38.528 118.208h65.264a697.104 697.104 0 0 0 23.36-78.4l12.272 3.44q-13.2 47.392-23.424 74.96H864v10.912h-112.384v-10.976z m7.616-70.528l10.72-3.728q8.752 26.16 16.944 58.592l-12 3.728q-6.608-28.496-15.792-58.656z m34.016-7.184l10.864-3.2a584.288 584.288 0 0 1 12.992 57.888l-12.416 3.296a591.12 591.12 0 0 0-11.568-58z m-574.72-585.344q4.112 27.12-13.488 30.496a48.448 48.448 0 0 1-14.064 0.288 99.92 99.92 0 0 0-3.2-11.856 36.48 36.48 0 0 0 13.072 1.136q10.08-1.696 6.528-20.192a58.848 58.848 0 0 0-12.496-24.848q6.816-22.176 11.504-40.24h-19.68v120.464h-10.64V137.952h42.032v9.744l-11.936 38.56a60.8 60.8 0 0 1 12.368 26.816z m0.704-61.296h42.752q-5.472-8.48-11.936-17.232l9.232-5.936q6.96 8.752 13.92 18.928l-6.816 4.24h44.304v10.464H252.16q0 11.936-0.432 22.032h47.008q-0.848 35.872-1.984 56.768a20.8 20.8 0 0 1-22.72 23.584q-10.512 0-21.44-0.288-0.848-5.36-2.272-12.576a203.04 203.04 0 0 0 21.296 1.408 12.704 12.704 0 0 0 14.064-13.984q0.992-14.544 1.6-44.48h-36.176a86.8 86.8 0 0 1-37.984 74.848q-2.976-4.096-7.52-9.744a67.712 67.712 0 0 0 28.688-34.736 198.96 198.96 0 0 0 6.4-62.848H219.36v-10.448z m107.824 16.8a285.744 285.744 0 0 1 25.712 18.08l-7.392 10.176a304 304 0 0 0-24.704-19.2z m14.624 41.808a126.768 126.768 0 0 0 11.36 5.648q-6.816 23.296-15.488 51.968l-11.936-5.792a405.568 405.568 0 0 0 16.064-51.824z m-8.096-78.512q13.92 10.032 24.144 18.928l-7.392 9.6q-15.488-13.984-23.44-20.192z m23.856 59.872h26.704V152h11.2v39.68h26.272v10.448h-26.256v66.368h-11.2v-66.304h-26.704v-10.448z m69.168-43.92h-67.312v-10.448h78.544V185.6q-0.288 62.976 10.656 66.368 2.272 0 2.976-4.096 0.704-5.36 1.984-23.44 5.248 1.84 10.368 3.536-1.84 22.32-2.976 29.232a10.544 10.544 0 0 1-9.52 11.024q-12.8 0-20.032-21.744a235.92 235.92 0 0 1-4.688-59.456v-39.2z m97.312 65.248q4.112 27.12-13.488 30.496a48.448 48.448 0 0 1-14.064 0.288 100.208 100.208 0 0 0-3.2-11.856 36.464 36.464 0 0 0 13.072 1.136q10.08-1.696 6.528-20.192a58.864 58.864 0 0 0-12.496-24.848q6.816-22.176 11.504-40.24h-19.664v120.464H481.6V137.952h42.032v9.744l-11.936 38.56a60.8 60.8 0 0 1 12.352 26.816z m0.752-61.296h42.752q-5.472-8.48-11.936-17.232l9.184-5.92q6.96 8.752 13.92 18.928l-6.816 4.24h44.304v10.448h-58.64q0 11.936-0.416 22.032h47.008q-0.848 35.872-1.984 56.768a20.8 20.8 0 0 1-22.72 23.584q-10.512 0-21.44-0.288-0.848-5.36-2.272-12.576a203.072 203.072 0 0 0 21.296 1.408 12.704 12.704 0 0 0 14.064-13.984q0.992-14.544 1.6-44.48h-36.192a86.832 86.832 0 0 1-38 74.848q-2.976-4.096-7.52-9.744a67.696 67.696 0 0 0 28.688-34.736 198.912 198.912 0 0 0 6.4-62.848H524.8v-10.448z m202.96-3.664q22.304 20.624 42.176 42.224l-10.08 8.336q-5.712-6.672-11.536-13.072-63.76 2.688-97.424 4.592a96.512 96.512 0 0 0-15.056 2.256l-4.688-12.144a41.408 41.408 0 0 0 11.792-6.64A282.992 282.992 0 0 0 687.392 128l10.656 6.56a377.824 377.824 0 0 1-44.448 44.208q43.536-1.344 85.632-3.104-9.728-10.528-19.744-20.48z m20.8 56v64.112h-11.6v-9.248h-78.112v9.312h-11.648v-64.112h101.392z m-11.648 10.448h-78.064v34.24h78.112v-34.176zM448 672h-128v-32h32a18.832 18.832 0 0 0 16-16V400a21.2 21.2 0 0 0-16-16s-22.72 0.432-32 0v-32h128v32h-32a22.4 22.4 0 0 0-16 16v224a19.552 19.552 0 0 0 16 16h32v32z m144 0h-128v-32h32a18.832 18.832 0 0 0 16-16V400a21.2 21.2 0 0 0-16-16s-22.72 0.432-32 0v-32h128v32h-32a22.4 22.4 0 0 0-16 16v224a19.552 19.552 0 0 0 16 16h32v32z m144 0h-128v-32h32a18.832 18.832 0 0 0 16-16V400a21.2 21.2 0 0 0-16-16s-22.72 0.432-32 0v-32h128v32h-32a22.4 22.4 0 0 0-16 16v224a19.552 19.552 0 0 0 16 16h32v32z" fill="#FFFFFF" /></svg>