<?xml version="1.0" standalone="no"?><!DOCTYPE svg PUBLIC "-//W3C//DTD SVG 1.1//EN" "http://www.w3.org/Graphics/SVG/1.1/DTD/svg11.dtd"><svg class="icon" width="200px" height="200.00px" viewBox="0 0 1024 1024" version="1.1" xmlns="http://www.w3.org/2000/svg"><path d="M154.976 64H960v64s-280 5.952-94.56 289.248C960 518.864 960 693.84 960 693.84S952.288 959.344 864 960c-53.152 0.4-784 0-784 0v-64s249.984-62.208 74.976-307.2C-32 327.104 154.976 64 154.976 64z" fill="#335dff" /><path d="M218.656 213.072q4.112 27.12-13.488 30.496a48.448 48.448 0 0 1-14.064 0.288 99.92 99.92 0 0 0-3.2-11.856 36.48 36.48 0 0 0 13.072 1.136q10.08-1.696 6.528-20.192a58.848 58.848 0 0 0-12.496-24.848q6.816-22.176 11.504-40.24h-19.68v120.464h-10.64V137.952h42.032v9.744l-11.936 38.56a60.8 60.8 0 0 1 12.368 26.816z m0.704-61.296h42.752q-5.472-8.48-11.936-17.232l9.232-5.936q6.96 8.752 13.92 18.928l-6.816 4.24h44.304v10.464H252.16q0 11.936-0.432 22.032h47.008q-0.848 35.872-1.984 56.768a20.8 20.8 0 0 1-22.72 23.584q-10.512 0-21.44-0.288-0.848-5.36-2.272-12.576a203.04 203.04 0 0 0 21.296 1.408 12.704 12.704 0 0 0 14.064-13.984q0.992-14.544 1.6-44.48h-36.176a86.8 86.8 0 0 1-37.984 74.848q-2.976-4.096-7.52-9.744a67.712 67.712 0 0 0 28.688-34.736 198.96 198.96 0 0 0 6.4-62.848H219.36v-10.448z m107.824 16.8a285.744 285.744 0 0 1 25.712 18.08l-7.392 10.176a304 304 0 0 0-24.704-19.2z m14.624 41.808a126.768 126.768 0 0 0 11.36 5.648q-6.816 23.296-15.488 51.968l-11.936-5.792a405.568 405.568 0 0 0 16.064-51.824z m-8.096-78.512q13.92 10.032 24.144 18.928l-7.392 9.6q-15.488-13.984-23.44-20.192z m23.856 59.872h26.704V152h11.2v39.68h26.272v10.448h-26.256v66.368h-11.2v-66.304h-26.704v-10.448z m69.168-43.92h-67.312v-10.448h78.544V185.6q-0.288 62.976 10.656 66.368 2.272 0 2.976-4.096 0.704-5.36 1.984-23.44 5.248 1.84 10.368 3.536-1.84 22.32-2.976 29.232a10.544 10.544 0 0 1-9.52 11.024q-12.8 0-20.032-21.744a235.92 235.92 0 0 1-4.688-59.456v-39.2z m97.312 65.248q4.112 27.12-13.488 30.496a48.448 48.448 0 0 1-14.064 0.288 100.208 100.208 0 0 0-3.2-11.856 36.464 36.464 0 0 0 13.072 1.136q10.08-1.696 6.528-20.192a58.864 58.864 0 0 0-12.496-24.848q6.816-22.176 11.504-40.24h-19.664v120.464H481.6V137.952h42.032v9.744l-11.936 38.56a60.8 60.8 0 0 1 12.352 26.816z m0.752-61.296h42.752q-5.472-8.48-11.936-17.232l9.184-5.92q6.96 8.752 13.92 18.928l-6.816 4.24h44.304v10.448h-58.64q0 11.936-0.416 22.032h47.008q-0.848 35.872-1.984 56.768a20.8 20.8 0 0 1-22.72 23.584q-10.512 0-21.44-0.288-0.848-5.36-2.272-12.576a203.072 203.072 0 0 0 21.296 1.408 12.704 12.704 0 0 0 14.064-13.984q0.992-14.544 1.6-44.48h-36.192a86.832 86.832 0 0 1-38 74.848q-2.976-4.096-7.52-9.744a67.696 67.696 0 0 0 28.688-34.736 198.912 198.912 0 0 0 6.4-62.848H524.8v-10.448z m202.96-3.664q22.304 20.624 42.176 42.224l-10.08 8.336q-5.712-6.672-11.536-13.072-63.76 2.688-97.424 4.592a96.512 96.512 0 0 0-15.056 2.256l-4.688-12.144a41.408 41.408 0 0 0 11.792-6.64A282.992 282.992 0 0 0 687.392 128l10.656 6.56a377.824 377.824 0 0 1-44.448 44.208q43.536-1.344 85.632-3.104-9.728-10.528-19.744-20.48z m20.8 56v64.112h-11.6v-9.248h-78.112v9.312h-11.648v-64.112h101.392z m-11.648 10.448h-78.064v34.24h78.112v-34.176zM432 672h-128v-32h32a18.832 18.832 0 0 0 16-16V400a21.2 21.2 0 0 0-16-16s-22.72 0.432-32 0v-32h128v32h-32a22.4 22.4 0 0 0-16 16v224a19.552 19.552 0 0 0 16 16h32v32z m320-288h-32c-3.392 6.4-2.016 20.672-8.496 36.8l-91.68 251.376L576 672l-96-256c-6.4-15.264-10.8-31.632-16-32-12.56-0.912-23.584 0-32 0l0.112-32.24L544 352v32a205.888 205.888 0 0 0-32 0c-4.192 1.6 0-4.608 0 0a106.464 106.464 0 0 0 9.856 24.48l80 188.8 77.136-186.352c5.488-13.344 12.704-26.64 8.24-26.688C675.056 384 685.376 384 656 384v-32l95.776-0.24zM287.84 764.176h120.16v130.112h-11.76v-8.608h-96.672v8.608h-11.728v-130.112z m90.256 71.52c4.368 0 9.808-0.08 16.32-0.288l-2.096 11.776h-16a15.888 15.888 0 0 1-18.56-17.36v-54.16h-19.968a205.056 205.056 0 0 1-4.608 53.296 54.88 54.88 0 0 1-24.56 29.296 97.232 97.232 0 0 0-8.656-9.184 45.984 45.984 0 0 0 22.4-25.152 182.4 182.4 0 0 0 3.904-48.256h-26.704v98.8h96.672v-98.8h-27.072v52.56a7.312 7.312 0 0 0 8.928 7.472z m48.992 30.032q22.32-5.456 45.344-11.936c0.096 3.376 0.24 6.672 0.416 9.92q-23.584 6.608-41.856 12.192z m18.688-33.472q14.512-1.6 29.568-3.568c-0.368 3.2-0.736 6.272-1.12 9.312q-22.736 2.896-40.176 5.904l-2.512-10.208a140.256 140.256 0 0 0 20.8-27.408q-10.736 0.784-22.112 2.016l-2.656-9.056a208.144 208.144 0 0 0 26.928-45.952l10.608 4.8q-14.4 24.992-25.104 40.496c5.216-0.192 11.072-0.448 17.6-0.736q5.024-8.448 10.736-18.672L478.4 784q-21.024 32.912-32.608 48.256z m52.112-14.4a117.92 117.92 0 0 1-28.528 76.4 74.352 74.352 0 0 0-8.928-8 92.8 92.8 0 0 0 23.152-43.2 324.144 324.144 0 0 0 4.8-70.528h-12.448v-10.192H545.6v10.752l-13.536 28.88H555.2v10.624a159.2 159.2 0 0 1-21.984 45.44 128.944 128.944 0 0 0 32.992 24.48 126.912 126.912 0 0 0-9.328 10.624 164.528 164.528 0 0 1-31.04-25.6 127.152 127.152 0 0 1-33.696 27.728 76.656 76.656 0 0 0-7.808-9.184 135.504 135.504 0 0 0 34.064-27.616 146.816 146.816 0 0 1-20.496-40.576z m22.528-16.208l13.392-29.168h-34.88v19.408a166.736 166.736 0 0 0 26.72 57.44 125.664 125.664 0 0 0 18-37.216h-23.216v-10.432zM584 772.8h33.76v99.2H608v-10.864h-14.16v13.056H584V772.8z m24 9.92h-14.16v68.48H608v-68.48z m20.928-8.896h24.56q3.904-10.192 6.976-20.112l11.296 2.704q-3.632 9.056-7.248 17.392h41.44v103.392a13.792 13.792 0 0 1-14.512 16.368q-7.248 0.128-17.44 0-0.704-5.168-1.952-11.2 9.552 0.832 16.656 0.832a7.408 7.408 0 0 0 7.536-9.056v-90.56h-57.488v112h-9.76v-121.76z m20.08 28.8h36.8v56.288h-27.232v6.32h-9.488v-62.688z m27.344 8.896h-17.776v38.496h17.856v-38.576z m114.704-53.584l10.176-5.584a180.8 180.8 0 0 1 11.44 17.072l-6.752 4.016h56.64v10.912h-108.672v35.2a118.992 118.992 0 0 1-20.368 75.952 101.216 101.216 0 0 0-8.096-9.888 100.656 100.656 0 0 0 16.736-65.776v-46.4h59.008a179.36 179.36 0 0 0-10.032-15.568z m-38.08 118.208H817.6a703.008 703.008 0 0 0 23.104-78.4l12.096 3.36q-13.04 47.392-23.152 74.96h34.464v10.912h-111.04v-10.912z m7.536-70.528l10.608-3.728q8.656 26.16 16.736 58.592l-11.856 3.728q-6.4-28.512-15.424-58.672z m33.6-7.184l10.736-3.2a590.496 590.496 0 0 1 12.8 57.888l-12.272 3.296q-3.92-28.464-11.168-58.016z" fill="#FFFFFF" /></svg>