<?xml version="1.0" standalone="no"?><!DOCTYPE svg PUBLIC "-//W3C//DTD SVG 1.1//EN" "http://www.w3.org/Graphics/SVG/1.1/DTD/svg11.dtd"><svg class="icon" width="200px" height="200.00px" viewBox="0 0 1024 1024" version="1.1" xmlns="http://www.w3.org/2000/svg"><path d="M154.976 64H960v64s-280 5.952-94.56 289.248C960 518.864 960 693.84 960 693.84S952.288 959.344 864 960c-53.152 0.4-784 0-784 0v-64s249.984-62.208 74.976-307.2C-32 327.104 154.976 64 154.976 64z" fill="#C93127" /><path d="M218.656 213.072q4.112 27.12-13.488 30.496a48.448 48.448 0 0 1-14.064 0.288 99.92 99.92 0 0 0-3.2-11.856 36.48 36.48 0 0 0 13.072 1.136q10.08-1.696 6.528-20.192a58.848 58.848 0 0 0-12.496-24.848q6.816-22.176 11.504-40.24h-19.68v120.464h-10.64V137.952h42.032v9.744l-11.936 38.56a60.8 60.8 0 0 1 12.368 26.816z m0.704-61.296h42.752q-5.472-8.48-11.936-17.232l9.232-5.936q6.96 8.752 13.92 18.928l-6.816 4.24h44.304v10.464H252.16q0 11.936-0.432 22.032h47.008q-0.848 35.872-1.984 56.768a20.8 20.8 0 0 1-22.72 23.584q-10.512 0-21.44-0.288-0.848-5.36-2.272-12.576a203.04 203.04 0 0 0 21.296 1.408 12.704 12.704 0 0 0 14.064-13.984q0.992-14.544 1.6-44.48h-36.176a86.8 86.8 0 0 1-37.984 74.848q-2.976-4.096-7.52-9.744a67.712 67.712 0 0 0 28.688-34.736 198.96 198.96 0 0 0 6.4-62.848H219.36v-10.448z m107.824 16.8a285.744 285.744 0 0 1 25.712 18.08l-7.392 10.176a304 304 0 0 0-24.704-19.2z m14.624 41.808a126.768 126.768 0 0 0 11.36 5.648q-6.816 23.296-15.488 51.968l-11.936-5.792a405.568 405.568 0 0 0 16.064-51.824z m-8.096-78.512q13.92 10.032 24.144 18.928l-7.392 9.6q-15.488-13.984-23.44-20.192z m23.856 59.872h26.704V152h11.2v39.68h26.272v10.448h-26.256v66.368h-11.2v-66.304h-26.704v-10.448z m69.168-43.92h-67.312v-10.448h78.544V185.6q-0.288 62.976 10.656 66.368 2.272 0 2.976-4.096 0.704-5.36 1.984-23.44 5.248 1.84 10.368 3.536-1.84 22.32-2.976 29.232a10.544 10.544 0 0 1-9.52 11.024q-12.8 0-20.032-21.744a235.92 235.92 0 0 1-4.688-59.456v-39.2z m97.312 65.248q4.112 27.12-13.488 30.496a48.448 48.448 0 0 1-14.064 0.288 100.208 100.208 0 0 0-3.2-11.856 36.464 36.464 0 0 0 13.072 1.136q10.08-1.696 6.528-20.192a58.864 58.864 0 0 0-12.496-24.848q6.816-22.176 11.504-40.24h-19.664v120.464H481.6V137.952h42.032v9.744l-11.936 38.56a60.8 60.8 0 0 1 12.352 26.816z m0.752-61.296h42.752q-5.472-8.48-11.936-17.232l9.184-5.92q6.96 8.752 13.92 18.928l-6.816 4.24h44.304v10.448h-58.64q0 11.936-0.416 22.032h47.008q-0.848 35.872-1.984 56.768a20.8 20.8 0 0 1-22.72 23.584q-10.512 0-21.44-0.288-0.848-5.36-2.272-12.576a203.072 203.072 0 0 0 21.296 1.408 12.704 12.704 0 0 0 14.064-13.984q0.992-14.544 1.6-44.48h-36.192a86.832 86.832 0 0 1-38 74.848q-2.976-4.096-7.52-9.744a67.696 67.696 0 0 0 28.688-34.736 198.912 198.912 0 0 0 6.4-62.848H524.8v-10.448z m202.96-3.664q22.304 20.624 42.176 42.224l-10.08 8.336q-5.712-6.672-11.536-13.072-63.76 2.688-97.424 4.592a96.512 96.512 0 0 0-15.056 2.256l-4.688-12.144a41.408 41.408 0 0 0 11.792-6.64A282.992 282.992 0 0 0 687.392 128l10.656 6.56a377.824 377.824 0 0 1-44.448 44.208q43.536-1.344 85.632-3.104-9.728-10.528-19.744-20.48z m20.8 56v64.112h-11.6v-9.248h-78.112v9.312h-11.648v-64.112h101.392z m-11.648 10.448h-78.064v34.24h78.112v-34.176zM266.32 815.424h141.168v12.432h-141.168v-12.432z m152.704 51.2q22.72-5.376 46.16-11.744c0.096 3.296 0.24 6.56 0.432 9.76q-24 6.496-42.608 11.984z m19.024-33.024q14.768-1.6 30.112-3.52l-1.136 9.168q-23.152 2.832-40.896 5.808l-2.56-10.048a139.2 139.2 0 0 0 21.232-26.928q-10.928 0.752-22.512 1.968l-2.704-8.912a203.52 203.52 0 0 0 27.408-45.184l10.8 4.672q-14.624 24.576-25.6 39.824c5.296-0.192 11.2-0.448 17.888-0.72q5.12-8.336 10.928-18.352l10.224 4.8q-21.392 32.336-33.184 47.424z m53.056-14.128a113.872 113.872 0 0 1-29.056 75.2 75.2 75.2 0 0 0-9.088-7.904 90.416 90.416 0 0 0 23.568-42.496 308.144 308.144 0 0 0 4.8-69.36H468.8V764.8h70.864v10.576l-13.776 28.4h23.568v10.448a154.208 154.208 0 0 1-22.4 44.688 131.2 131.2 0 0 0 33.6 24 126.096 126.096 0 0 0-9.52 10.448 165.392 165.392 0 0 1-31.584-25.136 128.64 128.64 0 0 1-34.304 27.2 77.552 77.552 0 0 0-8-9.04 137.168 137.168 0 0 0 34.656-27.2 142.112 142.112 0 0 1-20.8-39.68z m22.928-16l13.632-28.688H492.16v19.088a161.84 161.84 0 0 0 27.2 56.48 121.968 121.968 0 0 0 18.24-36.496h-23.568v-10.288z m64.8-28.4h34.368v97.6H603.2v-10.64h-14.4v12.8h-9.968v-99.664z m24.432 9.76H588.8v67.344h14.4v-67.248z m21.296-8.752H649.6q3.984-10.032 7.104-19.776l11.504 2.672q-3.744 9.024-7.408 17.2h42.176v101.68a13.744 13.744 0 0 1-14.768 16.096q-7.376 0.144-17.744 0-0.704-5.088-1.984-11.008 9.6 0.848 16.896 0.848a7.376 7.376 0 0 0 7.664-8.912v-89.104h-58.544V896h-9.936v-119.824z m20.448 28.24h37.488v55.36h-27.84v6.208h-9.6v-61.472z m27.84 8.752h-18.192v37.84h18.176v-37.744z m116.8-52.688l10.352-5.392a175.568 175.568 0 0 1 11.648 16.784l-6.88 3.952h57.6v10.736H751.68v34.608a114.128 114.128 0 0 1-20.8 74.688 100.192 100.192 0 0 0-8.24-9.728 96.512 96.512 0 0 0 17.04-64.672v-45.632h60.08a170.896 170.896 0 0 0-10.16-15.248z m-38.768 116.24h65.6a674.256 674.256 0 0 0 23.52-77.008l12.352 3.392q-13.264 46.592-23.552 73.712h35.072v10.736h-113.04v-10.736z m7.664-69.36l10.8-3.68q8.8 25.696 17.04 57.6l-12.08 3.68q-6.576-27.84-15.808-57.504z m34.224-7.056l10.928-3.104a563.632 563.632 0 0 1 13.072 56.928l-12.496 3.2a568.448 568.448 0 0 0-11.552-56.928zM576 672h-128v-32h32a18.832 18.832 0 0 0 16-16V400a21.2 21.2 0 0 0-16-16s-22.72 0.432-32 0v-32h128v32h-32a22.4 22.4 0 0 0-16 16v224a19.552 19.552 0 0 0 16 16h32v32z" fill="#FFFFFF" /></svg>